#!OML:ASF F:\VICON\USERDATA\INSTALL\rory3\rory3.ASF
:FULLY-SPECIFIED
:DEGREES
1813
root 1.73962 9.93021 -5.20342 342.324 34.1785 358.783
lowerback 29.1195 -0.00312691 -1.80049
upperback 12.5299 0.0010808 0.190288
thorax -1.94809 0.119817 1.23392
lowerneck -18.1248 -9.72495 -15.896
upperneck 7.42492 -10.9788 13.101
head 6.83081 -4.83893 5.49505
rclavicle 4.79071e-014 -5.08889e-014
rhumerus -7.09857 14.7497 -81.8869
rradius 86.1399
rwrist 41.3675
rhand -26.6162 12.3309
rfingers 7.12502
rthumb -0.0493813 -377.649
lclavicle 4.79071e-014 -5.08889e-014
lhumerus -5.75006 -6.30887 82.286
lradius 80.2242
lwrist -20.1087
lhand -31.1226 20.2481
lfingers 7.12502
lthumb -4.40153 50.1823
rfemur -76.4683 -20.0867 19.4432
rtibia 103.755
rfoot -4.3757 4.66085
rtoes 10.4271
lfemur -75.0443 19.9683 -12.1954
ltibia 103.961
lfoot -7.82804 -18.0169
ltoes -4.69041
1814
root 1.73819 9.92923 -5.20291 342.371 34.1359 358.868
lowerback 29.1363 0.011911 -1.9332
upperback 12.5278 -0.0173863 0.148258
thorax -1.95611 0.106714 1.26941
lowerneck -17.9526 -9.96356 -16.0071
upperneck 7.45477 -11.3262 13.2212
head 6.87857 -5.0068 5.50341
rclavicle 5.36719e-015 -5.96354e-015
rhumerus -7.01241 14.8416 -81.9225
rradius 86.0706
rwrist 41.3264
rhand -26.6686 12.4192
rfingers 7.12502
rthumb -0.0999978 -377.561
lclavicle 5.36719e-015 -5.96354e-015
lhumerus -5.73487 -6.23907 82.1893
lradius 80.1956
lwrist -20.0941
lhand -31.1591 20.3333
lfingers 7.12502
lthumb -4.43681 50.2668
rfemur -76.4978 -20.0292 19.3941
rtibia 103.755
rfoot -4.33617 4.6551
rtoes 10.4293
lfemur -75.0333 20.0233 -12.2532
ltibia 103.949
lfoot -7.84102 -18.0079
ltoes -4.56291
1815
root 1.73771 9.92924 -5.20222 342.421 34.0128 358.927
lowerback 29.0895 0.0647396 -2.03723
upperback 12.5466 0.0211988 0.115694
thorax -1.91399 0.121906 1.28195
lowerneck -17.7885 -10.2107 -16.0829
upperneck 7.41396 -11.6866 13.3414
head 6.90551 -5.17958 5.50356
rclavicle -3.67752e-014 -1.59028e-015
rhumerus -6.91205 14.85 -81.9486
rradius 85.9985
rwrist 41.299
rhand -26.5918 12.6441
rfingers 7.12502
rthumb -0.0258327 -377.336
lclavicle -3.67752e-014 -1.59028e-015
lhumerus -5.68907 -6.20711 82.1024
lradius 80.1691
lwrist -20.1166
lhand -31.1457 20.3536
lfingers 7.12502
lthumb -4.42385 50.2874
rfemur -76.5322 -19.8925 19.3968
rtibia 103.749
rfoot -4.31147 4.63325
rtoes 10.3778
lfemur -75.0167 20.1649 -12.2685
ltibia 103.95
lfoot -7.86311 -17.9984
ltoes -4.6662
1816
root 1.73755 9.93065 -5.20274 342.537 33.9746 359.064
lowerback 29.0489 0.104654 -2.18146
upperback 12.5351 0.0319506 0.0766764
thorax -1.90755 0.122411 1.31864
lowerneck -17.5743 -10.4457 -16.3085
upperneck 7.3667 -12.0165 13.5549
head 6.93467 -5.33749 5.56425
rclavicle 8.90555e-014 -3.00165e-014
rhumerus -6.87215 14.8934 -81.9515
rradius 85.9164
rwrist 41.2686
rhand -26.5513 12.77
rfingers 7.12502
rthumb 0.0132656 -377.21
lclavicle 8.90555e-014 -3.00165e-014
lhumerus -5.73203 -6.19684 82.0281
lradius 80.1795
lwrist -20.1692
lhand -31.1091 20.3276
lfingers 7.12502
lthumb -4.3885 50.2621
rfemur -76.5985 -19.8541 19.3242
rtibia 103.752
rfoot -4.28681 4.63683
rtoes 10.2088
lfemur -75.0137 20.2141 -12.3662
ltibia 103.949
lfoot -7.8604 -17.9948
ltoes -4.64478
1817
root 1.7394 9.9308 -5.20281 342.602 33.9831 359.167
lowerback 29.0311 0.114895 -2.2823
upperback 12.5342 0.0173674 0.0420796
thorax -1.89895 0.112267 1.34278
lowerneck -17.3772 -10.689 -16.5835
upperneck 7.37617 -12.351 13.7761
head 6.99069 -5.49793 5.63319
rclavicle 1.60419e-013 -6.93758e-014
rhumerus -6.84115 14.9687 -81.9444
rradius 85.8603
rwrist 41.2378
rhand -26.6301 12.55
rfingers 7.12502
rthumb -0.0628413 -377.43
lclavicle 1.60419e-013 -6.93758e-014
lhumerus -5.7853 -6.19416 81.9788
lradius 80.1955
lwrist -20.2379
lhand -31.2926 20.4135
lfingers 7.12502
lthumb -4.56563 50.3443
rfemur -76.6119 -19.8684 19.2335
rtibia 103.769
rfoot -4.27107 4.67264
rtoes 10.3467
lfemur -75.0002 20.1937 -12.4519
ltibia 103.958
lfoot -7.87353 -17.9551
ltoes -4.64733
1818
root 1.73955 9.92953 -5.20095 342.57 33.9563 359.136
lowerback 29.0462 0.0976627 -2.2953
upperback 12.5384 -0.00961408 0.0181112
thorax -1.89984 0.0989901 1.33191
lowerneck -17.1919 -10.9474 -16.7944
upperneck 7.40417 -12.7137 13.9381
head 7.05171 -5.67374 5.66666
rclavicle 1.19271e-014 -5.9039e-014
rhumerus -6.81852 15.0625 -82.0039
rradius 85.8273
rwrist 41.2043
rhand -26.7292 12.4207
rfingers 7.12502
rthumb -0.158541 -377.559
lclavicle 1.19271e-014 -5.9039e-014
lhumerus -5.81848 -6.1363 81.9028
lradius 80.236
lwrist -20.1881
lhand -31.3524 20.4211
lfingers 7.12502
lthumb -4.62346 50.3506
rfemur -76.6017 -19.8427 19.268
rtibia 103.774
rfoot -4.275 4.64272
rtoes 10.4333
lfemur -74.9989 20.2393 -12.4141
ltibia 103.965
lfoot -7.89118 -17.9682
ltoes -4.74838
